<svg width="20" height="20" viewBox="0 0 20 20" fill="none" xmlns="http://www.w3.org/2000/svg">
<path d="M9.99996 1.66666C5.40829 1.66666 1.66663 5.40832 1.66663 9.99999C1.66663 14.5917 5.40829 18.3333 9.99996 18.3333C14.5916 18.3333 18.3333 14.5917 18.3333 9.99999C18.3333 5.40832 14.5916 1.66666 9.99996 1.66666ZM13.625 12.975C13.5083 13.175 13.3 13.2833 13.0833 13.2833C12.975 13.2833 12.8666 13.2583 12.7666 13.1917L10.1833 11.65C9.54163 11.2667 9.06663 10.425 9.06663 9.68332V6.26666C9.06663 5.92499 9.34996 5.64166 9.69163 5.64166C10.0333 5.64166 10.3166 5.92499 10.3166 6.26666V9.68332C10.3166 9.98332 10.5666 10.425 10.825 10.575L13.4083 12.1167C13.7083 12.2917 13.8083 12.675 13.625 12.975Z" fill="#9293B9"/>
</svg>
